<svg width="624.5px" height="121.4px" xmlns="http://www.w3.org/2000/svg" viewBox="-62.2600158691406 14.297583007812499 624.5200317382812 121.404833984375" style="background: rgb(255, 255, 255)" preserveAspectRatio="xMidYMid"><defs><linearGradient id="editing-sticker-gradient" x1="0.5" y1="0.2" x2="0.5" y2="0.8"><stop offset="0" stop-color="#412a1e"></stop><stop offset="1" stop-color="#f8de3c"></stop></linearGradient><filter id="editing-sticker" x="-100%" y="-100%" width="300%" height="300%"><feMorphology operator="erode" radius="1" in="SourceAlpha" result="alpha-erode"></feMorphology><feConvolveMatrix order="3,3" divisor="1" kernelMatrix="0 1 0 1 1 1 0 1 0" in="alpha-erode" result="alpha-round"></feConvolveMatrix><feMorphology operator="dilate" radius="3.5" in="alpha-round" result="dilate-shadow"></feMorphology><feGaussianBlur in="dilate-shadow" stdDeviation="1.5" result="shadow"></feGaussianBlur><feFlood flood-color="#fff" result="flood-sticker"></feFlood><feComposite operator="in" in="flood-sticker" in2="alpha-round" result="comp-sticker"></feComposite><feMorphology operator="dilate" radius="3" in="comp-sticker" result="morph-sticker"></feMorphology><feConvolveMatrix order="3,3" divisor="1" kernelMatrix="0 1 0 1 1 1 0 1 0" in="morph-sticker" result="sticker"></feConvolveMatrix><feMerge><feMergeNode in="shadow"></feMergeNode><feMergeNode in="sticker"></feMergeNode><feMergeNode in="SourceGraphic"></feMergeNode></feMerge></filter></defs><g filter="url(#editing-sticker)"><g transform="matrix(1.2,0,0,1.6,-13.9,186.4)"><path d="M 20 -55.6 L 6.1 -55.6 L 14.2 -97.9 L 28.3 -97.9 L 20 -55.6 Z M 75.8 -54.4 L 75.8 -54.4 L 75.8 -54.4 Q 68 -54.4 68 -60.4 L 68 -60.4 L 68 -60.4 Q 68 -63 69.2 -68.1 L 69.2 -68.1 L 69.2 -68.1 Q 70.3 -73.2 70.7 -75.2 L 70.7 -75.2 L 70.7 -75.2 Q 71.6 -79.9 71.6 -81.4 L 71.6 -81.4 L 71.6 -81.4 Q 71.6 -84.6 69.1 -84.6 L 69.1 -84.6 L 69.1 -84.6 Q 67.5 -84.6 66 -82.4 L 66 -82.4 L 66 -82.4 Q 64.5 -80.2 63.8 -75.8 L 63.8 -75.8 L 59.8 -55.6 L 47.3 -54.4 L 50.8 -71.8 L 50.8 -71.8 Q 51.3 -74.7 51.8 -77.9 L 51.8 -77.9 L 51.8 -77.9 Q 52.4 -81.2 52.4 -81.7 L 52.4 -81.7 L 52.4 -81.7 Q 52.4 -84.6 50.2 -84.6 L 50.2 -84.6 L 50.2 -84.6 Q 48.7 -84.6 47.1 -82.5 L 47.1 -82.5 L 47.1 -82.5 Q 45.5 -80.3 44.6 -75.8 L 44.6 -75.8 L 40.7 -55.6 L 28.1 -54.4 L 34.8 -88.3 L 45.3 -89.6 L 44.2 -83.1 L 44.2 -83.1 Q 45.8 -86.6 48.9 -88.1 L 48.9 -88.1 L 48.9 -88.1 Q 52 -89.6 56.8 -89.6 L 56.8 -89.6 L 56.8 -89.6 Q 59.5 -89.6 61.3 -88.2 L 61.3 -88.2 L 61.3 -88.2 Q 63.1 -86.9 63.7 -84.7 L 63.7 -84.7 L 63.7 -84.7 Q 64.8 -86.9 67.6 -88.3 L 67.6 -88.3 L 67.6 -88.3 Q 70.3 -89.6 73.8 -89.6 L 73.8 -89.6 L 73.8 -89.6 Q 77.2 -89.6 78.9 -88.8 L 78.9 -88.8 L 78.9 -88.8 Q 80.6 -88.1 81.6 -86.9 L 81.6 -86.9 L 81.6 -86.9 Q 83.3 -84.6 83.3 -80.5 L 83.3 -80.5 L 83.3 -80.5 Q 83.3 -76.5 81.6 -68.1 L 81.6 -68.1 L 81.6 -68.1 Q 80.7 -64 80.7 -62.5 L 80.7 -62.5 L 80.7 -62.5 Q 80.7 -61 81.6 -60.1 L 81.6 -60.1 L 81.6 -60.1 Q 82.4 -59.2 83.7 -59.1 L 83.7 -59.1 L 83.7 -59.1 Q 83.1 -56.9 80.9 -55.6 L 80.9 -55.6 L 80.9 -55.6 Q 78.7 -54.4 75.8 -54.4 Z M 91.4 -57.6 L 91.4 -57.6 L 91.4 -57.6 Q 89.9 -59.2 89.3 -61.9 L 89.3 -61.9 L 89.3 -61.9 Q 88.6 -64.5 88.6 -68.8 L 88.6 -68.8 L 88.6 -68.8 Q 88.6 -73.1 90.1 -77 L 90.1 -77 L 90.1 -77 Q 91.5 -80.9 94.2 -83.7 L 94.2 -83.7 L 94.2 -83.7 Q 99.7 -89.6 108.8 -89.6 L 108.8 -89.6 L 108.8 -89.6 Q 112.1 -89.6 114.4 -88.5 L 114.4 -88.5 L 125.4 -89.6 L 120.6 -64.6 L 120.6 -64.6 Q 120.5 -63.8 120.5 -62.4 L 120.5 -62.4 L 120.5 -62.4 Q 120.5 -61 121.3 -60.1 L 121.3 -60.1 L 121.3 -60.1 Q 122.2 -59.2 123.5 -59.1 L 123.5 -59.1 L 123.5 -59.1 Q 122.8 -56.9 120.5 -55.6 L 120.5 -55.6 L 120.5 -55.6 Q 118.2 -54.4 115.5 -54.4 L 115.5 -54.4 L 115.5 -54.4 Q 112.9 -54.4 111.1 -55.4 L 111.1 -55.4 L 111.1 -55.4 Q 109.4 -56.3 108.9 -58 L 108.9 -58 L 108.9 -58 Q 107.8 -56.4 105.7 -55.4 L 105.7 -55.4 L 105.7 -55.4 Q 103.5 -54.4 100.6 -54.4 L 100.6 -54.4 L 100.6 -54.4 Q 97.7 -54.4 95.3 -55.1 L 95.3 -55.1 L 95.3 -55.1 Q 92.9 -55.9 91.4 -57.6 Z M 104.9 -83.5 L 104.9 -83.5 L 104.9 -83.5 Q 104.2 -82.4 103.6 -80.4 L 103.6 -80.4 L 103.6 -80.4 Q 102.9 -78.5 101.9 -73.3 L 101.9 -73.3 L 101.9 -73.3 Q 100.8 -68.1 100.8 -64.3 L 100.8 -64.3 L 100.8 -64.3 Q 100.8 -60.6 101.4 -59.5 L 101.4 -59.5 L 101.4 -59.5 Q 102 -58.5 103 -58.5 L 103 -58.5 L 103 -58.5 Q 105 -58.5 106.5 -60.4 L 106.5 -60.4 L 106.5 -60.4 Q 108 -62.4 108.6 -65.8 L 108.6 -65.8 L 112 -84.6 L 112 -84.6 Q 110.7 -85.7 109.1 -85.7 L 109.1 -85.7 L 109.1 -85.7 Q 107.5 -85.7 106.6 -85.2 L 106.6 -85.2 L 106.6 -85.2 Q 105.7 -84.7 104.9 -83.5 Z M 133.1 -82.4 L 133.1 -82.4 L 133.1 -82.4 Q 135.3 -85.5 138.6 -87.5 L 138.6 -87.5 L 138.6 -87.5 Q 141.9 -89.6 145.9 -89.6 L 145.9 -89.6 L 145.9 -89.6 Q 150 -89.6 151.9 -88.3 L 151.9 -88.3 L 164.4 -89.6 L 160.1 -65 L 160.1 -65 Q 157.8 -52.4 153.1 -47.5 L 153.1 -47.5 L 153.1 -47.5 Q 148.6 -42.8 139.7 -42.8 L 139.7 -42.8 L 139.7 -42.8 Q 133 -42.8 129.2 -45 L 129.2 -45 L 129.2 -45 Q 125.3 -47.1 125.3 -50.6 L 125.3 -50.6 L 125.3 -50.6 Q 125.3 -53.2 127.3 -54.7 L 127.3 -54.7 L 127.3 -54.7 Q 129.3 -56.2 132.4 -56.2 L 132.4 -56.2 L 132.4 -56.2 Q 135 -56.2 137.1 -55 L 137.1 -55 L 137.1 -55 Q 138.3 -54.4 138.9 -53.5 L 138.9 -53.5 L 138.9 -53.5 Q 137.4 -52.2 137.4 -50.1 L 137.4 -50.1 L 137.4 -50.1 Q 137.4 -47.3 140 -47.3 L 140 -47.3 L 140 -47.3 Q 144.3 -47.3 146.7 -57.4 L 146.7 -57.4 L 146.7 -57.4 Q 147.4 -60.2 148 -62.9 L 148 -62.9 L 148 -62.9 Q 145.1 -59.4 138.6 -59.4 L 138.6 -59.4 L 138.6 -59.4 Q 134 -59.4 131.4 -61.6 L 131.4 -61.6 L 131.4 -61.6 Q 128.8 -63.8 128.8 -68.9 L 128.8 -68.9 L 128.8 -68.9 Q 128.8 -72.1 129.9 -75.7 L 129.9 -75.7 L 129.9 -75.7 Q 131 -79.3 133.1 -82.4 Z M 141.4 -68.7 L 141.4 -68.7 L 141.4 -68.7 Q 141.4 -64.3 143.7 -64.3 L 143.7 -64.3 L 143.7 -64.3 Q 145.2 -64.3 146.7 -66 L 146.7 -66 L 146.7 -66 Q 147.8 -67.4 148.3 -69.3 L 148.3 -69.3 L 151.6 -85.8 L 151.6 -85.8 Q 151.2 -85.9 150.9 -86 L 150.9 -86 L 150.9 -86 Q 150.3 -86.2 149.4 -86.2 L 149.4 -86.2 L 149.4 -86.2 Q 145.5 -86.2 143.2 -79.8 L 143.2 -79.8 L 143.2 -79.8 Q 141.4 -74.8 141.4 -68.7 Z M 192.8 -66.5 L 192.8 -66.5 L 192.8 -66.5 Q 194.4 -65.4 194.4 -63 L 194.4 -63 L 194.4 -63 Q 194.4 -60.6 193.2 -59 L 193.2 -59 L 193.2 -59 Q 192 -57.5 190 -56.5 L 190 -56.5 L 190 -56.5 Q 185.9 -54.4 181.5 -54.4 L 181.5 -54.4 L 181.5 -54.4 Q 177.1 -54.4 174.5 -55.3 L 174.5 -55.3 L 174.5 -55.3 Q 171.9 -56.3 170.2 -58.1 L 170.2 -58.1 L 170.2 -58.1 Q 166.8 -61.5 166.8 -67.7 L 166.8 -67.7 L 166.8 -67.7 Q 166.8 -77.3 172 -83.2 L 172 -83.2 L 172 -83.2 Q 177.7 -89.6 187.5 -89.6 L 187.5 -89.6 L 187.5 -89.6 Q 193.5 -89.6 196.6 -87 L 196.6 -87 L 196.6 -87 Q 198.8 -85.1 198.8 -81.9 L 198.8 -81.9 L 198.8 -81.9 Q 198.8 -70.7 179.3 -70.7 L 179.3 -70.7 L 179.3 -70.7 Q 179.1 -69 179.1 -67.6 L 179.1 -67.6 L 179.1 -67.6 Q 179.1 -64.7 180.4 -63.5 L 180.4 -63.5 L 180.4 -63.5 Q 181.7 -62.4 184.1 -62.4 L 184.1 -62.4 L 184.1 -62.4 Q 186.6 -62.4 189.2 -63.5 L 189.2 -63.5 L 189.2 -63.5 Q 191.8 -64.7 192.8 -66.5 Z M 179.8 -73.4 L 179.8 -73.4 L 179.8 -73.4 Q 184.3 -73.4 187 -76.3 L 187 -76.3 L 187 -76.3 Q 189.6 -78.9 189.6 -83.2 L 189.6 -83.2 L 189.6 -83.2 Q 189.6 -84.7 189 -85.5 L 189 -85.5 L 189 -85.5 Q 188.5 -86.3 187.4 -86.3 L 187.4 -86.3 L 187.4 -86.3 Q 186.3 -86.3 185.4 -85.9 L 185.4 -85.9 L 185.4 -85.9 Q 184.5 -85.5 183.5 -84.1 L 183.5 -84.1 L 183.5 -84.1 Q 181.1 -80.9 179.8 -73.4 Z M 242.2 -54.4 L 242.2 -54.4 L 242.2 -54.4 Q 234.1 -54.4 233.3 -66 L 233.3 -66 L 222.3 -66 L 222.3 -66 Q 221 -63.1 220.1 -60.5 L 220.1 -60.5 L 218.4 -55.6 L 209.5 -55.6 L 229.6 -97.9 L 243.4 -97.9 L 246.1 -66.8 L 246.1 -66.8 Q 246.7 -60.1 249.3 -58.1 L 249.3 -58.1 L 249.3 -58.1 Q 247.4 -54.4 242.2 -54.4 Z M 227.8 -78.8 L 224.3 -70.7 L 233.1 -70.7 L 232.3 -87.1 L 232.3 -88.9 L 227.8 -78.8 Z M 273 -73.6 L 273 -73.6 L 273 -73.6 Q 275.3 -77.7 275.3 -81.9 L 275.3 -81.9 L 275.3 -81.9 Q 275.3 -84.6 273.4 -84.6 L 273.4 -84.6 L 273.4 -84.6 Q 271.8 -84.6 270.2 -82 L 270.2 -82 L 270.2 -82 Q 268.6 -79.4 268 -76 L 268 -76 L 264.7 -55.6 L 251.5 -54.4 L 258 -88.3 L 268.6 -89.6 L 267.4 -83.1 L 267.4 -83.1 Q 270.5 -89.6 277.6 -89.6 L 277.6 -89.6 L 277.6 -89.6 Q 281.3 -89.6 283.3 -87.6 L 283.3 -87.6 L 283.3 -87.6 Q 285.3 -85.7 285.3 -81.8 L 285.3 -81.8 L 285.3 -81.8 Q 285.3 -77.9 282.7 -75.4 L 282.7 -75.4 L 282.7 -75.4 Q 280.1 -72.9 275.7 -72.9 L 275.7 -72.9 L 275.7 -72.9 Q 273.8 -72.9 273 -73.6 Z M 317.8 -82.3 L 317.8 -82.3 L 317.8 -82.3 Q 317.8 -79.6 315.5 -77.9 L 315.5 -77.9 L 315.5 -77.9 Q 313.3 -76.3 309.6 -76.3 L 309.6 -76.3 L 309.6 -76.3 Q 308.1 -76.3 307.2 -76.7 L 307.2 -76.7 L 307.2 -76.7 Q 307.9 -78.4 308.1 -80.4 L 308.1 -80.4 L 308.1 -80.4 Q 308.4 -82.5 308.4 -83.1 L 308.4 -83.1 L 308.4 -83.1 Q 308.4 -85.8 306.5 -85.8 L 306.5 -85.8 L 306.5 -85.8 Q 305.2 -85.8 303.8 -84.2 L 303.8 -84.2 L 303.8 -84.2 Q 302.3 -82.6 301.1 -80.1 L 301.1 -80.1 L 301.1 -80.1 Q 298.4 -74.3 298.4 -68.5 L 298.4 -68.5 L 298.4 -68.5 Q 298.4 -65.3 299.7 -63.9 L 299.7 -63.9 L 299.7 -63.9 Q 300.9 -62.4 303.6 -62.4 L 303.6 -62.4 L 303.6 -62.4 Q 307.3 -62.4 310.2 -65.5 L 310.2 -65.5 L 310.2 -65.5 Q 311 -66.5 311.5 -67.5 L 311.5 -67.5 L 311.5 -67.5 Q 313.9 -66.3 313.9 -62.7 L 313.9 -62.7 L 313.9 -62.7 Q 313.9 -59.2 310 -56.8 L 310 -56.8 L 310 -56.8 Q 305.9 -54.4 299.3 -54.4 L 299.3 -54.4 L 299.3 -54.4 Q 286.3 -54.4 286.3 -68.1 L 286.3 -68.1 L 286.3 -68.1 Q 286.3 -78.2 292 -83.9 L 292 -83.9 L 292 -83.9 Q 297.5 -89.6 307.7 -89.6 L 307.7 -89.6 L 307.7 -89.6 Q 317.8 -89.6 317.8 -82.3 Z M 351.7 -62.7 L 351.7 -62.7 L 351.7 -62.7 Q 351.7 -59.9 354.6 -59.1 L 354.6 -59.1 L 354.6 -59.1 Q 353.9 -56.7 351.1 -55.5 L 351.1 -55.5 L 351.1 -55.5 Q 348.8 -54.4 346.3 -54.4 L 346.3 -54.4 L 346.3 -54.4 Q 343.8 -54.4 342.4 -55 L 342.4 -55 L 342.4 -55 Q 341.1 -55.7 340.4 -56.8 L 340.4 -56.8 L 340.4 -56.8 Q 339.3 -58.5 339.3 -61.6 L 339.3 -61.6 L 339.3 -61.6 Q 339.3 -63.5 340.3 -68.6 L 340.3 -68.6 L 341.2 -73.4 L 341.2 -73.4 Q 342.3 -79 342.3 -81.1 L 342.3 -81.1 L 342.3 -81.1 Q 342.3 -84.6 340.3 -84.6 L 340.3 -84.6 L 340.3 -84.6 Q 337.8 -84.6 336.2 -81 L 336.2 -81 L 336.2 -81 Q 335.6 -79.6 335.1 -77.5 L 335.1 -77.5 L 330.8 -55.6 L 317.9 -54.4 L 326.9 -100.4 L 339.8 -101.7 L 339.3 -99.2 L 339.3 -99.2 Q 337.5 -89.3 335.9 -86 L 335.9 -86 L 335.9 -86 Q 339.5 -89.6 346.1 -89.6 L 346.1 -89.6 L 346.1 -89.6 Q 353.1 -89.6 354.4 -85 L 354.4 -85 L 354.4 -85 Q 354.8 -83.5 354.8 -82.2 L 354.8 -82.2 L 354.8 -82.2 Q 354.8 -80.9 354.7 -79.9 L 354.7 -79.9 L 354.7 -79.9 Q 354.6 -78.9 354.3 -77.1 L 354.3 -77.1 L 353.5 -72.5 L 352 -65.3 L 352 -65.3 Q 351.7 -63.8 351.7 -62.7 Z M 375.1 -59.2 L 375.1 -59.2 L 375.1 -59.2 Q 373.1 -54.4 366.8 -54.4 L 366.8 -54.4 L 366.8 -54.4 Q 363.5 -54.4 361.5 -56.6 L 361.5 -56.6 L 361.5 -56.6 Q 359.8 -58.6 359.8 -60.6 L 359.8 -60.6 L 359.8 -60.6 Q 359.8 -65.8 362.1 -75.9 L 362.1 -75.9 L 364.5 -88.3 L 377.5 -89.6 L 373.6 -69.3 L 373.6 -69.3 Q 372.5 -64.6 372.5 -62.9 L 372.5 -62.9 L 372.5 -62.9 Q 372.5 -59.3 375.1 -59.2 Z M 365.6 -97.2 L 365.6 -97.2 L 365.6 -97.2 Q 365.6 -99.7 367.7 -101 L 367.7 -101 L 367.7 -101 Q 369.8 -102.4 372.8 -102.4 L 372.8 -102.4 L 372.8 -102.4 Q 375.8 -102.4 377.6 -101 L 377.6 -101 L 377.6 -101 Q 379.5 -99.7 379.5 -97.2 L 379.5 -97.2 L 379.5 -97.2 Q 379.5 -94.7 377.4 -93.4 L 377.4 -93.4 L 377.4 -93.4 Q 375.4 -92.1 372.4 -92.1 L 372.4 -92.1 L 372.4 -92.1 Q 369.4 -92.1 367.5 -93.4 L 367.5 -93.4 L 367.5 -93.4 Q 365.6 -94.7 365.6 -97.2 Z M 403.8 -87.2 L 403.8 -87.2 L 403.8 -87.2 Q 405.9 -89.6 409.5 -89.6 L 409.5 -89.6 L 409.5 -89.6 Q 411.8 -89.6 413.5 -88.3 L 413.5 -88.3 L 413.5 -88.3 Q 415.2 -87.1 415.2 -84.9 L 415.2 -84.9 L 415.2 -84.9 Q 415.2 -82.6 414.5 -80.2 L 414.5 -80.2 L 414.5 -80.2 Q 413.8 -77.7 412.7 -75.2 L 412.7 -75.2 L 412.7 -75.2 Q 410.6 -70.4 407.6 -66.3 L 407.6 -66.3 L 407.6 -66.3 Q 403.3 -60.5 399.3 -57.4 L 399.3 -57.4 L 399.3 -57.4 Q 395.2 -54.4 390.8 -54.4 L 390.8 -54.4 L 390.8 -54.4 Q 387.2 -54.4 385 -55.2 L 385 -55.2 L 385 -55.2 Q 384.6 -68.6 384.2 -73.4 L 384.2 -73.4 L 384.2 -73.4 Q 383.7 -78.2 383.3 -80.9 L 383.3 -80.9 L 383.3 -80.9 Q 382.7 -86 380.7 -87.2 L 380.7 -87.2 L 380.7 -87.2 Q 382.2 -88.5 383.7 -89 L 383.7 -89 L 383.7 -89 Q 385.1 -89.6 388.1 -89.6 L 388.1 -89.6 L 388.1 -89.6 Q 391 -89.6 393.2 -87.2 L 393.2 -87.2 L 393.2 -87.2 Q 395.3 -84.9 395.7 -80.8 L 395.7 -80.8 L 395.7 -80.8 Q 396.1 -76.6 396.1 -71.6 L 396.1 -71.6 L 396.1 -71.6 Q 396.1 -66.7 395.7 -60.6 L 395.7 -60.6 L 395.7 -60.6 Q 397.7 -62 399.8 -66.3 L 399.8 -66.3 L 399.8 -66.3 Q 402.7 -72.3 403.7 -79.5 L 403.7 -79.5 L 403.7 -79.5 Q 404 -81.6 404 -83.9 L 404 -83.9 L 404 -83.9 Q 404 -86.2 403.8 -87.2 Z M 442.9 -66.5 L 442.9 -66.5 L 442.9 -66.5 Q 444.5 -65.4 444.5 -63 L 444.5 -63 L 444.5 -63 Q 444.5 -60.6 443.3 -59 L 443.3 -59 L 443.3 -59 Q 442.1 -57.5 440.1 -56.5 L 440.1 -56.5 L 440.1 -56.5 Q 436 -54.4 431.6 -54.4 L 431.6 -54.4 L 431.6 -54.4 Q 427.1 -54.4 424.6 -55.3 L 424.6 -55.3 L 424.6 -55.3 Q 422 -56.3 420.2 -58.1 L 420.2 -58.1 L 420.2 -58.1 Q 416.8 -61.5 416.8 -67.7 L 416.8 -67.7 L 416.8 -67.7 Q 416.8 -77.3 422.1 -83.2 L 422.1 -83.2 L 422.1 -83.2 Q 427.7 -89.6 437.5 -89.6 L 437.5 -89.6 L 437.5 -89.6 Q 443.6 -89.6 446.6 -87 L 446.6 -87 L 446.6 -87 Q 448.8 -85.1 448.8 -81.9 L 448.8 -81.9 L 448.8 -81.9 Q 448.8 -70.7 429.4 -70.7 L 429.4 -70.7 L 429.4 -70.7 Q 429.1 -69 429.1 -67.6 L 429.1 -67.6 L 429.1 -67.6 Q 429.1 -64.7 430.4 -63.5 L 430.4 -63.5 L 430.4 -63.5 Q 431.8 -62.4 434.2 -62.4 L 434.2 -62.4 L 434.2 -62.4 Q 436.6 -62.4 439.2 -63.5 L 439.2 -63.5 L 439.2 -63.5 Q 441.8 -64.7 442.9 -66.5 Z M 429.8 -73.4 L 429.8 -73.4 L 429.8 -73.4 Q 434.4 -73.4 437 -76.3 L 437 -76.3 L 437 -76.3 Q 439.6 -78.9 439.6 -83.2 L 439.6 -83.2 L 439.6 -83.2 Q 439.6 -84.7 439.1 -85.5 L 439.1 -85.5 L 439.1 -85.5 Q 438.5 -86.3 437.4 -86.3 L 437.4 -86.3 L 437.4 -86.3 Q 436.4 -86.3 435.4 -85.9 L 435.4 -85.9 L 435.4 -85.9 Q 434.5 -85.5 433.5 -84.1 L 433.5 -84.1 L 433.5 -84.1 Q 431.2 -80.9 429.8 -73.4 Z" fill="url(#editing-sticker-gradient)" stroke="#412a1e" stroke-width="2.5"></path></g></g><style>text {
  font-size: 64px;
  font-family: Arial Black;
  dominant-baseline: central;
  text-anchor: middle;
}</style></svg>