<svg width="624.1249267578124px" height="122px" xmlns="http://www.w3.org/2000/svg" viewBox="-62.062463378906216 14 624.1249267578124 122" style="background:#f2eddb" preserveAspectRatio="xMidYMid"><defs><filter id="editing-vintage" x="-100%" y="-100%" width="300%" height="300%"><feConvolveMatrix in="SourceGraphic" result="extrude" order="2,2" divisor="1" kernelMatrix="1,0,0,1"> </feConvolveMatrix><feFlood flood-color="#900" result="flood-extrude"></feFlood><feComposite operator="in" in="flood-extrude" in2="extrude" result="extrude-color"></feComposite><feOffset dx="1" dy="1" in="extrude-color" result="extrude-offset"></feOffset><feColorMatrix in="SourceGraphic" result="stroke" type="matrix" values="0 0 0 0 0 0 0 0 0 0 0 0 0 0 0 0 1 0 0 0 "></feColorMatrix><feColorMatrix in="SourceGraphic" result="fill" type="matrix" values="0 0 0 0 0 0 0 0 0 0 0 0 0 0 0 1 0 0 1 0 "></feColorMatrix><feConvolveMatrix in="stroke" result="inner-shadow" order="5,5" divisor="1" kernelMatrix="1 0 0 0 0 0 1 0 0 0 0 0 1 0 0 0 0 0 1 0 0 0 0 0 1 "></feConvolveMatrix><feOffset dx="1" dy="1" in="inner-shadow" result="offset"></feOffset><feComposite operator="in" in="offset" in2="SourceAlpha" result="comp"></feComposite><feFlood flood-color="#000" result="flood3"></feFlood><feComposite operator="in" in="flood3" in2="comp" result="comp2"></feComposite><feColorMatrix in="comp2" result="comp3" type="matrix" values="1 0 0 0 0 0 1 0 0 0 0 0 1 0 0 0 0 0 0.5 0 "></feColorMatrix><feFlood flood-color="#f00" result="flood1"></feFlood><feComposite operator="in" in="flood1" in2="fill" result="fill2"></feComposite><feFlood flood-color="#fff" result="flood2"></feFlood><feComposite operator="in" in="flood2" in2="stroke" result="stroke2"></feComposite><feMerge result="obj"><feMergeNode in="extrude-offset"></feMergeNode><feMergeNode in="fill2"></feMergeNode><feMergeNode in="comp3"></feMergeNode></feMerge><feConvolveMatrix in="SourceAlpha" result="shadow" order="2,2" divisor="1" kernelMatrix="1,0,0,1"></feConvolveMatrix><feOffset dx="3" dy="3" in="shadow" result="shadow-offset"></feOffset><feFlood flood-color="#444" result="flood-shadow"></feFlood><feComposite operator="in" in="flood-shadow" in2="shadow-offset" result="shadow-color"></feComposite><feMerge><feMergeNode in="shadow-color"></feMergeNode><feMergeNode in="obj"></feMergeNode></feMerge></filter></defs><g transform="translate(-2,-2)"><g filter="url(#editing-vintage)"><g transform="translate(28.239979833364487, 104.76000213623047)"><path d="M14.34 0L0.38 0L8.51-42.24L22.59-42.24L14.34 0ZM70.08 1.28L70.08 1.28L70.08 1.28Q62.34 1.28 62.34-4.74L62.34-4.74L62.34-4.74Q62.34-7.36 63.46-12.45L63.46-12.45L63.46-12.45Q64.58-17.54 64.96-19.58L64.96-19.58L64.96-19.58Q65.86-24.26 65.86-25.73L65.86-25.73L65.86-25.73Q65.86-28.99 63.42-28.99L63.42-28.99L63.42-28.99Q61.82-28.99 60.29-26.78L60.29-26.78L60.29-26.78Q58.75-24.58 58.05-20.16L58.05-20.16L54.08 0L41.60 1.28L45.06-16.13L45.06-16.13Q45.63-19.01 46.14-22.27L46.14-22.27L46.14-22.27Q46.66-25.54 46.66-26.05L46.66-26.05L46.66-26.05Q46.66-28.99 44.48-28.99L44.48-28.99L44.48-28.99Q43.01-28.99 41.41-26.82L41.41-26.82L41.41-26.82Q39.81-24.64 38.91-20.16L38.91-20.16L35.01 0L22.40 1.28L29.12-32.64L39.55-33.92L38.46-27.46L38.46-27.46Q40.13-30.91 43.20-32.42L43.20-32.42L43.20-32.42Q46.27-33.92 51.07-33.92L51.07-33.92L51.07-33.92Q53.82-33.92 55.62-32.58L55.62-32.58L55.62-32.58Q57.41-31.23 57.98-29.06L57.98-29.06L57.98-29.06Q59.07-31.30 61.86-32.61L61.86-32.61L61.86-32.61Q64.64-33.92 68.06-33.92L68.06-33.92L68.06-33.92Q71.49-33.92 73.18-33.18L73.18-33.18L73.18-33.18Q74.88-32.45 75.90-31.23L75.90-31.23L75.90-31.23Q77.63-28.99 77.63-24.90L77.63-24.90L77.63-24.90Q77.63-20.86 75.90-12.48L75.90-12.48L75.90-12.48Q75.01-8.38 75.01-6.88L75.01-6.88L75.01-6.88Q75.01-5.38 75.87-4.48L75.87-4.48L75.87-4.48Q76.74-3.58 78.02-3.46L78.02-3.46L78.02-3.46Q77.38-1.28 75.17 0L75.17 0L75.17 0Q72.96 1.28 70.08 1.28ZM85.73-1.92L85.73-1.92L85.73-1.92Q84.22-3.58 83.55-6.21L83.55-6.21L83.55-6.21Q82.88-8.83 82.88-13.12L82.88-13.12L82.88-13.12Q82.88-17.41 84.35-21.31L84.35-21.31L84.35-21.31Q85.82-25.22 88.51-28.03L88.51-28.03L88.51-28.03Q94.02-33.92 103.10-33.92L103.10-33.92L103.10-33.92Q106.37-33.92 108.74-32.83L108.74-32.83L119.68-33.92L114.94-8.96L114.94-8.96Q114.75-8.19 114.75-6.78L114.75-6.78L114.75-6.78Q114.75-5.38 115.62-4.48L115.62-4.48L115.62-4.48Q116.48-3.58 117.76-3.46L117.76-3.46L117.76-3.46Q117.12-1.28 114.78 0L114.78 0L114.78 0Q112.45 1.28 109.82 1.28L109.82 1.28L109.82 1.28Q107.20 1.28 105.44 0.29L105.44 0.29L105.44 0.29Q103.68-0.70 103.17-2.37L103.17-2.37L103.17-2.37Q102.14-0.77 99.97 0.26L99.97 0.26L99.97 0.26Q97.79 1.28 94.88 1.28L94.88 1.28L94.88 1.28Q91.97 1.28 89.60 0.51L89.60 0.51L89.60 0.51Q87.23-0.26 85.73-1.92ZM99.23-27.90L99.23-27.90L99.23-27.90Q98.50-26.75 97.86-24.80L97.86-24.80L97.86-24.80Q97.22-22.85 96.16-17.63L96.16-17.63L96.16-17.63Q95.10-12.42 95.10-8.70L95.10-8.70L95.10-8.70Q95.10-4.99 95.68-3.90L95.68-3.90L95.68-3.90Q96.26-2.82 97.28-2.82L97.28-2.82L97.28-2.82Q99.33-2.82 100.83-4.77L100.83-4.77L100.83-4.77Q102.34-6.72 102.91-10.18L102.91-10.18L106.30-28.93L106.30-28.93Q104.96-30.08 103.39-30.08L103.39-30.08L103.39-30.08Q101.82-30.08 100.90-29.57L100.90-29.57L100.90-29.57Q99.97-29.06 99.23-27.90ZM127.42-26.75L127.42-26.75L127.42-26.75Q129.60-29.82 132.90-31.87L132.90-31.87L132.90-31.87Q136.19-33.92 140.22-33.92L140.22-33.92L140.22-33.92Q144.26-33.92 146.18-32.64L146.18-32.64L158.72-33.92L154.37-9.34L154.37-9.34Q152.13 3.20 147.39 8.13L147.39 8.13L147.39 8.13Q142.85 12.80 134.02 12.80L134.02 12.80L134.02 12.80Q127.30 12.80 123.46 10.69L123.46 10.69L123.46 10.69Q119.62 8.58 119.62 5.06L119.62 5.06L119.62 5.06Q119.62 2.43 121.60 0.93L121.60 0.93L121.60 0.93Q123.58-0.58 126.66-0.58L126.66-0.58L126.66-0.58Q129.34-0.58 131.39 0.64L131.39 0.64L131.39 0.64Q132.61 1.28 133.18 2.18L133.18 2.18L133.18 2.18Q131.71 3.46 131.71 5.57L131.71 5.57L131.71 5.57Q131.71 8.32 134.27 8.32L134.27 8.32L134.27 8.32Q138.56 8.32 140.99-1.79L140.99-1.79L140.99-1.79Q141.70-4.54 142.27-7.30L142.27-7.30L142.27-7.30Q139.39-3.78 132.86-3.78L132.86-3.78L132.86-3.78Q128.32-3.78 125.70-5.95L125.70-5.95L125.70-5.95Q123.07-8.13 123.07-13.25L123.07-13.25L123.07-13.25Q123.07-16.45 124.16-20.06L124.16-20.06L124.16-20.06Q125.25-23.68 127.42-26.75ZM135.74-13.06L135.74-13.06L135.74-13.06Q135.74-8.70 137.98-8.70L137.98-8.70L137.98-8.70Q139.52-8.70 140.99-10.37L140.99-10.37L140.99-10.37Q142.14-11.71 142.59-13.70L142.59-13.70L145.86-30.14L145.86-30.14Q145.54-30.21 145.22-30.34L145.22-30.34L145.22-30.34Q144.58-30.59 143.74-30.59L143.74-30.59L143.74-30.59Q139.84-30.59 137.54-24.19L137.54-24.19L137.54-24.19Q135.74-19.20 135.74-13.06ZM187.14-10.82L187.14-10.82L187.14-10.82Q188.74-9.73 188.74-7.33L188.74-7.33L188.74-7.33Q188.74-4.93 187.52-3.39L187.52-3.39L187.52-3.39Q186.30-1.86 184.32-0.83L184.32-0.83L184.32-0.83Q180.22 1.28 175.81 1.28L175.81 1.28L175.81 1.28Q171.39 1.28 168.80 0.32L168.80 0.32L168.80 0.32Q166.21-0.64 164.48-2.43L164.48-2.43L164.48-2.43Q161.09-5.82 161.09-12.03L161.09-12.03L161.09-12.03Q161.09-21.70 166.34-27.58L166.34-27.58L166.34-27.58Q171.97-33.92 181.76-33.92L181.76-33.92L181.76-33.92Q187.84-33.92 190.85-31.36L190.85-31.36L190.85-31.36Q193.09-29.44 193.09-26.30L193.09-26.30L193.09-26.30Q193.09-15.04 173.63-15.04L173.63-15.04L173.63-15.04Q173.38-13.38 173.38-11.97L173.38-11.97L173.38-11.97Q173.38-9.02 174.69-7.90L174.69-7.90L174.69-7.90Q176-6.78 178.43-6.78L178.43-6.78L178.43-6.78Q180.86-6.78 183.46-7.90L183.46-7.90L183.46-7.90Q186.05-9.02 187.14-10.82ZM174.08-17.79L174.08-17.79L174.08-17.79Q178.62-17.79 181.25-20.61L181.25-20.61L181.25-20.61Q183.87-23.30 183.87-27.58L183.87-27.58L183.87-27.58Q183.87-29.06 183.33-29.86L183.33-29.86L183.33-29.86Q182.78-30.66 181.70-30.66L181.70-30.66L181.70-30.66Q180.61-30.66 179.68-30.24L179.68-30.24L179.68-30.24Q178.75-29.82 177.79-28.42L177.79-28.42L177.79-28.42Q175.42-25.22 174.08-17.79ZM236.54 1.28L236.54 1.28L236.54 1.28Q228.35 1.28 227.58-10.37L227.58-10.37L216.58-10.37L216.58-10.37Q215.30-7.42 214.40-4.86L214.40-4.86L212.74 0L203.78 0L223.94-42.24L237.70-42.24L240.38-11.14L240.38-11.14Q241.02-4.42 243.58-2.43L243.58-2.43L243.58-2.43Q241.73 1.28 236.54 1.28ZM222.08-23.17L218.56-15.04L227.39-15.04L226.62-31.49L226.62-33.22L222.08-23.17ZM267.33-17.98L267.33-17.98L267.33-17.98Q269.63-22.08 269.63-26.24L269.63-26.24L269.63-26.24Q269.63-28.99 267.65-28.99L267.65-28.99L267.65-28.99Q266.11-28.99 264.51-26.37L264.51-26.37L264.51-26.37Q262.85-23.74 262.34-20.35L262.34-20.35L259.01 0L245.76 1.28L252.29-32.64L262.85-33.92L261.70-27.46L261.70-27.46Q264.83-33.92 271.87-33.92L271.87-33.92L271.87-33.92Q275.58-33.92 277.60-32L277.60-32L277.60-32Q279.62-30.08 279.62-26.14L279.62-26.14L279.62-26.14Q279.62-22.21 277.02-19.71L277.02-19.71L277.02-19.71Q274.43-17.22 270.02-17.22L270.02-17.22L270.02-17.22Q268.10-17.22 267.33-17.98ZM312.06-26.62L312.06-26.62L312.06-26.62Q312.06-23.94 309.82-22.27L309.82-22.27L309.82-22.27Q307.58-20.61 303.94-20.61L303.94-20.61L303.94-20.61Q302.40-20.61 301.50-21.06L301.50-21.06L301.50-21.06Q302.21-22.72 302.43-24.80L302.43-24.80L302.43-24.80Q302.66-26.88 302.66-27.46L302.66-27.46L302.66-27.46Q302.66-30.14 300.80-30.14L300.80-30.14L300.80-30.14Q299.52-30.14 298.08-28.54L298.08-28.54L298.08-28.54Q296.64-26.94 295.42-24.45L295.42-24.45L295.42-24.45Q292.74-18.69 292.74-12.86L292.74-12.86L292.74-12.86Q292.74-9.66 293.95-8.22L293.95-8.22L293.95-8.22Q295.17-6.78 297.86-6.78L297.86-6.78L297.86-6.78Q301.57-6.78 304.51-9.86L304.51-9.86L304.51-9.86Q305.34-10.82 305.79-11.90L305.79-11.90L305.79-11.90Q308.22-10.62 308.22-7.10L308.22-7.10L308.22-7.10Q308.22-3.52 304.26-1.15L304.26-1.15L304.26-1.15Q300.16 1.28 293.63 1.28L293.63 1.28L293.63 1.28Q280.64 1.28 280.64-12.48L280.64-12.48L280.64-12.48Q280.64-22.53 286.34-28.29L286.34-28.29L286.34-28.29Q291.84-33.92 301.95-33.92L301.95-33.92L301.95-33.92Q312.06-33.92 312.06-26.62ZM345.98-7.10L345.98-7.10L345.98-7.10Q345.98-4.29 348.86-3.46L348.86-3.46L348.86-3.46Q348.16-1.09 345.41 0.19L345.41 0.19L345.41 0.19Q343.10 1.28 340.58 1.28L340.58 1.28L340.58 1.28Q338.05 1.28 336.74 0.61L336.74 0.61L336.74 0.61Q335.42-0.06 334.72-1.15L334.72-1.15L334.72-1.15Q333.57-2.82 333.57-5.95L333.57-5.95L333.57-5.95Q333.57-7.81 334.59-12.93L334.59-12.93L335.49-17.79L335.49-17.79Q336.58-23.36 336.58-25.41L336.58-25.41L336.58-25.41Q336.58-28.99 334.59-28.99L334.59-28.99L334.59-28.99Q332.10-28.99 330.50-25.34L330.50-25.34L330.50-25.34Q329.86-23.94 329.41-21.82L329.41-21.82L325.06 0L312.19 1.28L321.22-44.80L334.08-46.08L333.57-43.52L333.57-43.52Q331.78-33.66 330.24-30.34L330.24-30.34L330.24-30.34Q333.82-33.92 340.42-33.92L340.42-33.92L340.42-33.92Q347.39-33.92 348.67-29.31L348.67-29.31L348.67-29.31Q349.12-27.84 349.12-26.56L349.12-26.56L349.12-26.56Q349.12-25.28 349.02-24.29L349.02-24.29L349.02-24.29Q348.93-23.30 348.61-21.50L348.61-21.50L347.78-16.90L346.30-9.66L346.30-9.66Q345.98-8.19 345.98-7.10ZM369.41-3.52L369.41-3.52L369.41-3.52Q367.42 1.28 361.09 1.28L361.09 1.28L361.09 1.28Q357.82 1.28 355.78-0.96L355.78-0.96L355.78-0.96Q354.05-2.94 354.05-4.93L354.05-4.93L354.05-4.93Q354.05-10.11 356.42-20.22L356.42-20.22L358.78-32.64L371.78-33.92L367.87-13.70L367.87-13.70Q366.78-8.96 366.78-7.30L366.78-7.30L366.78-7.30Q366.78-3.65 369.41-3.52ZM359.94-41.54L359.94-41.54L359.94-41.54Q359.94-44.03 362.02-45.38L362.02-45.38L362.02-45.38Q364.10-46.72 367.10-46.72L367.10-46.72L367.10-46.72Q370.11-46.72 371.94-45.38L371.94-45.38L371.94-45.38Q373.76-44.03 373.76-41.54L373.76-41.54L373.76-41.54Q373.76-39.04 371.74-37.76L371.74-37.76L371.74-37.76Q369.73-36.48 366.72-36.48L366.72-36.48L366.72-36.48Q363.71-36.48 361.82-37.76L361.82-37.76L361.82-37.76Q359.94-39.04 359.94-41.54ZM398.08-31.55L398.08-31.55L398.08-31.55Q400.19-33.92 403.84-33.92L403.84-33.92L403.84-33.92Q406.08-33.92 407.81-32.70L407.81-32.70L407.81-32.70Q409.54-31.49 409.54-29.22L409.54-29.22L409.54-29.22Q409.54-26.94 408.83-24.51L408.83-24.51L408.83-24.51Q408.13-22.08 407.04-19.58L407.04-19.58L407.04-19.58Q404.86-14.72 401.86-10.69L401.86-10.69L401.86-10.69Q397.63-4.86 393.57-1.79L393.57-1.79L393.57-1.79Q389.50 1.28 385.09 1.28L385.09 1.28L385.09 1.28Q381.50 1.28 379.33 0.45L379.33 0.45L379.33 0.45Q378.94-12.99 378.46-17.79L378.46-17.79L378.46-17.79Q377.98-22.59 377.60-25.22L377.60-25.22L377.60-25.22Q376.96-30.34 375.04-31.55L375.04-31.55L375.04-31.55Q376.51-32.83 377.95-33.38L377.95-33.38L377.95-33.38Q379.39-33.92 382.37-33.92L382.37-33.92L382.37-33.92Q385.34-33.92 387.46-31.58L387.46-31.58L387.46-31.58Q389.57-29.25 389.98-25.12L389.98-25.12L389.98-25.12Q390.40-20.99 390.40-16L390.40-16L390.40-16Q390.40-11.01 390.02-4.99L390.02-4.99L390.02-4.99Q392.00-6.40 394.11-10.69L394.11-10.69L394.11-10.69Q396.99-16.64 398.02-23.81L398.02-23.81L398.02-23.81Q398.34-25.98 398.34-28.29L398.34-28.29L398.34-28.29Q398.34-30.59 398.08-31.55ZM437.18-10.82L437.18-10.82L437.18-10.82Q438.78-9.73 438.78-7.33L438.78-7.33L438.78-7.33Q438.78-4.93 437.57-3.39L437.57-3.39L437.57-3.39Q436.35-1.86 434.37-0.83L434.37-0.83L434.37-0.83Q430.27 1.28 425.86 1.28L425.86 1.28L425.86 1.28Q421.44 1.28 418.85 0.32L418.85 0.32L418.85 0.32Q416.26-0.64 414.53-2.43L414.53-2.43L414.53-2.43Q411.14-5.82 411.14-12.03L411.14-12.03L411.14-12.03Q411.14-21.70 416.38-27.58L416.38-27.58L416.38-27.58Q422.02-33.92 431.81-33.92L431.81-33.92L431.81-33.92Q437.89-33.92 440.90-31.36L440.90-31.36L440.90-31.36Q443.14-29.44 443.14-26.30L443.14-26.30L443.14-26.30Q443.14-15.04 423.68-15.04L423.68-15.04L423.68-15.04Q423.42-13.38 423.42-11.97L423.42-11.97L423.42-11.97Q423.42-9.02 424.74-7.90L424.74-7.90L424.74-7.90Q426.05-6.78 428.48-6.78L428.48-6.78L428.48-6.78Q430.91-6.78 433.50-7.90L433.50-7.90L433.50-7.90Q436.10-9.02 437.18-10.82ZM424.13-17.79L424.13-17.79L424.13-17.79Q428.67-17.79 431.30-20.61L431.30-20.61L431.30-20.61Q433.92-23.30 433.92-27.58L433.92-27.58L433.92-27.58Q433.92-29.06 433.38-29.86L433.38-29.86L433.38-29.86Q432.83-30.66 431.74-30.66L431.74-30.66L431.74-30.66Q430.66-30.66 429.73-30.24L429.73-30.24L429.73-30.24Q428.80-29.82 427.84-28.42L427.84-28.42L427.84-28.42Q425.47-25.22 424.13-17.79Z" fill="#f00" stroke="#0f0" stroke-width="1.8"></path></g></g><g><g transform="translate(28.240004628896713, 104.76000213623047)"><path d="M14.34 0L0.38 0L8.51-42.24L22.59-42.24L14.34 0ZM70.08 1.28L70.08 1.28L70.08 1.28Q62.34 1.28 62.34-4.74L62.34-4.74L62.34-4.74Q62.34-7.36 63.46-12.45L63.46-12.45L63.46-12.45Q64.58-17.54 64.96-19.58L64.96-19.58L64.96-19.58Q65.86-24.26 65.86-25.73L65.86-25.73L65.86-25.73Q65.86-28.99 63.42-28.99L63.42-28.99L63.42-28.99Q61.82-28.99 60.29-26.78L60.29-26.78L60.29-26.78Q58.75-24.58 58.05-20.16L58.05-20.16L54.08 0L41.60 1.28L45.06-16.13L45.06-16.13Q45.63-19.01 46.14-22.27L46.14-22.27L46.14-22.27Q46.66-25.54 46.66-26.05L46.66-26.05L46.66-26.05Q46.66-28.99 44.48-28.99L44.48-28.99L44.48-28.99Q43.01-28.99 41.41-26.82L41.41-26.82L41.41-26.82Q39.81-24.64 38.91-20.16L38.91-20.16L35.01 0L22.40 1.28L29.12-32.64L39.55-33.92L38.46-27.46L38.46-27.46Q40.13-30.91 43.20-32.42L43.20-32.42L43.20-32.42Q46.27-33.92 51.07-33.92L51.07-33.92L51.07-33.92Q53.82-33.92 55.62-32.58L55.62-32.58L55.62-32.58Q57.41-31.23 57.98-29.06L57.98-29.06L57.98-29.06Q59.07-31.30 61.86-32.61L61.86-32.61L61.86-32.61Q64.64-33.92 68.06-33.92L68.06-33.92L68.06-33.92Q71.49-33.92 73.18-33.18L73.18-33.18L73.18-33.18Q74.88-32.45 75.90-31.23L75.90-31.23L75.90-31.23Q77.63-28.99 77.63-24.90L77.63-24.90L77.63-24.90Q77.63-20.86 75.90-12.48L75.90-12.48L75.90-12.48Q75.01-8.38 75.01-6.88L75.01-6.88L75.01-6.88Q75.01-5.38 75.87-4.48L75.87-4.48L75.87-4.48Q76.74-3.58 78.02-3.46L78.02-3.46L78.02-3.46Q77.38-1.28 75.17 0L75.17 0L75.17 0Q72.96 1.28 70.08 1.28ZM85.73-1.92L85.73-1.92L85.73-1.92Q84.22-3.58 83.55-6.21L83.55-6.21L83.55-6.21Q82.88-8.83 82.88-13.12L82.88-13.12L82.88-13.12Q82.88-17.41 84.35-21.31L84.35-21.31L84.35-21.31Q85.82-25.22 88.51-28.03L88.51-28.03L88.51-28.03Q94.02-33.92 103.10-33.92L103.10-33.92L103.10-33.92Q106.37-33.92 108.74-32.83L108.74-32.83L119.68-33.92L114.94-8.96L114.94-8.96Q114.75-8.19 114.75-6.78L114.75-6.78L114.75-6.78Q114.75-5.38 115.62-4.48L115.62-4.48L115.62-4.48Q116.48-3.58 117.76-3.46L117.76-3.46L117.76-3.46Q117.12-1.28 114.78 0L114.78 0L114.78 0Q112.45 1.28 109.82 1.28L109.82 1.28L109.82 1.28Q107.20 1.28 105.44 0.29L105.44 0.29L105.44 0.29Q103.68-0.70 103.17-2.37L103.17-2.37L103.17-2.37Q102.14-0.77 99.97 0.26L99.97 0.26L99.97 0.26Q97.79 1.28 94.88 1.28L94.88 1.28L94.88 1.28Q91.97 1.28 89.60 0.51L89.60 0.51L89.60 0.51Q87.23-0.26 85.73-1.92ZM99.23-27.90L99.23-27.90L99.23-27.90Q98.50-26.75 97.86-24.80L97.86-24.80L97.86-24.80Q97.22-22.85 96.16-17.63L96.16-17.63L96.16-17.63Q95.10-12.42 95.10-8.70L95.10-8.70L95.10-8.70Q95.10-4.99 95.68-3.90L95.68-3.90L95.68-3.90Q96.26-2.82 97.28-2.82L97.28-2.82L97.28-2.82Q99.33-2.82 100.83-4.77L100.83-4.77L100.83-4.77Q102.34-6.72 102.91-10.18L102.91-10.18L106.30-28.93L106.30-28.93Q104.96-30.08 103.39-30.08L103.39-30.08L103.39-30.08Q101.82-30.08 100.90-29.57L100.90-29.57L100.90-29.57Q99.97-29.06 99.23-27.90ZM127.42-26.75L127.42-26.75L127.42-26.75Q129.60-29.82 132.90-31.87L132.90-31.87L132.90-31.87Q136.19-33.92 140.22-33.92L140.22-33.92L140.22-33.92Q144.26-33.92 146.18-32.64L146.18-32.64L158.72-33.92L154.37-9.34L154.37-9.34Q152.13 3.20 147.39 8.13L147.39 8.13L147.39 8.13Q142.85 12.80 134.02 12.80L134.02 12.80L134.02 12.80Q127.30 12.80 123.46 10.69L123.46 10.69L123.46 10.69Q119.62 8.58 119.62 5.06L119.62 5.06L119.62 5.06Q119.62 2.43 121.60 0.93L121.60 0.93L121.60 0.93Q123.58-0.58 126.66-0.58L126.66-0.58L126.66-0.58Q129.34-0.58 131.39 0.64L131.39 0.64L131.39 0.64Q132.61 1.28 133.18 2.18L133.18 2.18L133.18 2.18Q131.71 3.46 131.71 5.57L131.71 5.57L131.71 5.57Q131.71 8.32 134.27 8.32L134.27 8.32L134.27 8.32Q138.56 8.32 140.99-1.79L140.99-1.79L140.99-1.79Q141.70-4.54 142.27-7.30L142.27-7.30L142.27-7.30Q139.39-3.78 132.86-3.78L132.86-3.78L132.86-3.78Q128.32-3.78 125.70-5.95L125.70-5.95L125.70-5.95Q123.07-8.13 123.07-13.25L123.07-13.25L123.07-13.25Q123.07-16.45 124.16-20.06L124.16-20.06L124.16-20.06Q125.25-23.68 127.42-26.75ZM135.74-13.06L135.74-13.06L135.74-13.06Q135.74-8.70 137.98-8.70L137.98-8.70L137.98-8.70Q139.52-8.70 140.99-10.37L140.99-10.37L140.99-10.37Q142.14-11.71 142.59-13.70L142.59-13.70L145.86-30.14L145.86-30.14Q145.54-30.21 145.22-30.34L145.22-30.34L145.22-30.34Q144.58-30.59 143.74-30.59L143.74-30.59L143.74-30.59Q139.84-30.59 137.54-24.19L137.54-24.19L137.54-24.19Q135.74-19.20 135.74-13.06ZM187.14-10.82L187.14-10.82L187.14-10.82Q188.74-9.73 188.74-7.33L188.74-7.33L188.74-7.33Q188.74-4.93 187.52-3.39L187.52-3.39L187.52-3.39Q186.30-1.86 184.32-0.83L184.32-0.83L184.32-0.83Q180.22 1.28 175.81 1.28L175.81 1.28L175.81 1.28Q171.39 1.28 168.80 0.32L168.80 0.32L168.80 0.32Q166.21-0.64 164.48-2.43L164.48-2.43L164.48-2.43Q161.09-5.82 161.09-12.03L161.09-12.03L161.09-12.03Q161.09-21.70 166.34-27.58L166.34-27.58L166.34-27.58Q171.97-33.92 181.76-33.92L181.76-33.92L181.76-33.92Q187.84-33.92 190.85-31.36L190.85-31.36L190.85-31.36Q193.09-29.44 193.09-26.30L193.09-26.30L193.09-26.30Q193.09-15.04 173.63-15.04L173.63-15.04L173.63-15.04Q173.38-13.38 173.38-11.97L173.38-11.97L173.38-11.97Q173.38-9.02 174.69-7.90L174.69-7.90L174.69-7.90Q176-6.78 178.43-6.78L178.43-6.78L178.43-6.78Q180.86-6.78 183.46-7.90L183.46-7.90L183.46-7.90Q186.05-9.02 187.14-10.82ZM174.08-17.79L174.08-17.79L174.08-17.79Q178.62-17.79 181.25-20.61L181.25-20.61L181.25-20.61Q183.87-23.30 183.87-27.58L183.87-27.58L183.87-27.58Q183.87-29.06 183.33-29.86L183.33-29.86L183.33-29.86Q182.78-30.66 181.70-30.66L181.70-30.66L181.70-30.66Q180.61-30.66 179.68-30.24L179.68-30.24L179.68-30.24Q178.75-29.82 177.79-28.42L177.79-28.42L177.79-28.42Q175.42-25.22 174.08-17.79ZM236.54 1.28L236.54 1.28L236.54 1.28Q228.35 1.28 227.58-10.37L227.58-10.37L216.58-10.37L216.58-10.37Q215.30-7.42 214.40-4.86L214.40-4.86L212.74 0L203.78 0L223.94-42.24L237.70-42.24L240.38-11.14L240.38-11.14Q241.02-4.42 243.58-2.43L243.58-2.43L243.58-2.43Q241.73 1.28 236.54 1.28ZM222.08-23.17L218.56-15.04L227.39-15.04L226.62-31.49L226.62-33.22L222.08-23.17ZM267.33-17.98L267.33-17.98L267.33-17.98Q269.63-22.08 269.63-26.24L269.63-26.24L269.63-26.24Q269.63-28.99 267.65-28.99L267.65-28.99L267.65-28.99Q266.11-28.99 264.51-26.37L264.51-26.37L264.51-26.37Q262.85-23.74 262.34-20.35L262.34-20.35L259.01 0L245.76 1.28L252.29-32.64L262.85-33.92L261.70-27.46L261.70-27.46Q264.83-33.92 271.87-33.92L271.87-33.92L271.87-33.92Q275.58-33.92 277.60-32L277.60-32L277.60-32Q279.62-30.08 279.62-26.14L279.62-26.14L279.62-26.14Q279.62-22.21 277.02-19.71L277.02-19.71L277.02-19.71Q274.43-17.22 270.02-17.22L270.02-17.22L270.02-17.22Q268.10-17.22 267.33-17.98ZM312.06-26.62L312.06-26.62L312.06-26.62Q312.06-23.94 309.82-22.27L309.82-22.27L309.82-22.27Q307.58-20.61 303.94-20.61L303.94-20.61L303.94-20.61Q302.40-20.61 301.50-21.06L301.50-21.06L301.50-21.06Q302.21-22.72 302.43-24.80L302.43-24.80L302.43-24.80Q302.66-26.88 302.66-27.46L302.66-27.46L302.66-27.46Q302.66-30.14 300.80-30.14L300.80-30.14L300.80-30.14Q299.52-30.14 298.08-28.54L298.08-28.54L298.08-28.54Q296.64-26.94 295.42-24.45L295.42-24.45L295.42-24.45Q292.74-18.69 292.74-12.86L292.74-12.86L292.74-12.86Q292.74-9.66 293.95-8.22L293.95-8.22L293.95-8.22Q295.17-6.78 297.86-6.78L297.86-6.78L297.86-6.78Q301.57-6.78 304.51-9.86L304.51-9.86L304.51-9.86Q305.34-10.82 305.79-11.90L305.79-11.90L305.79-11.90Q308.22-10.62 308.22-7.10L308.22-7.10L308.22-7.10Q308.22-3.52 304.26-1.15L304.26-1.15L304.26-1.15Q300.16 1.28 293.63 1.28L293.63 1.28L293.63 1.28Q280.64 1.28 280.64-12.48L280.64-12.48L280.64-12.48Q280.64-22.53 286.34-28.29L286.34-28.29L286.34-28.29Q291.84-33.92 301.95-33.92L301.95-33.92L301.95-33.92Q312.06-33.92 312.06-26.62ZM345.98-7.10L345.98-7.10L345.98-7.10Q345.98-4.29 348.86-3.46L348.86-3.46L348.86-3.46Q348.16-1.09 345.41 0.19L345.41 0.19L345.41 0.19Q343.10 1.28 340.58 1.28L340.58 1.28L340.58 1.28Q338.05 1.28 336.74 0.61L336.74 0.61L336.74 0.61Q335.42-0.06 334.72-1.15L334.72-1.15L334.72-1.15Q333.57-2.82 333.57-5.95L333.57-5.95L333.57-5.95Q333.57-7.81 334.59-12.93L334.59-12.93L335.49-17.79L335.49-17.79Q336.58-23.36 336.58-25.41L336.58-25.41L336.58-25.41Q336.58-28.99 334.59-28.99L334.59-28.99L334.59-28.99Q332.10-28.99 330.50-25.34L330.50-25.34L330.50-25.34Q329.86-23.94 329.41-21.82L329.41-21.82L325.06 0L312.19 1.28L321.22-44.80L334.08-46.08L333.57-43.52L333.57-43.52Q331.78-33.66 330.24-30.34L330.24-30.34L330.24-30.34Q333.82-33.92 340.42-33.92L340.42-33.92L340.42-33.92Q347.39-33.92 348.67-29.31L348.67-29.31L348.67-29.31Q349.12-27.84 349.12-26.56L349.12-26.56L349.12-26.56Q349.12-25.28 349.02-24.29L349.02-24.29L349.02-24.29Q348.93-23.30 348.61-21.50L348.61-21.50L347.78-16.90L346.30-9.66L346.30-9.66Q345.98-8.19 345.98-7.10ZM369.41-3.52L369.41-3.52L369.41-3.52Q367.42 1.28 361.09 1.28L361.09 1.28L361.09 1.28Q357.82 1.28 355.78-0.96L355.78-0.96L355.78-0.96Q354.05-2.94 354.05-4.93L354.05-4.93L354.05-4.93Q354.05-10.11 356.42-20.22L356.42-20.22L358.78-32.64L371.78-33.92L367.87-13.70L367.87-13.70Q366.78-8.96 366.78-7.30L366.78-7.30L366.78-7.30Q366.78-3.65 369.41-3.52ZM359.94-41.54L359.94-41.54L359.94-41.54Q359.94-44.03 362.02-45.38L362.02-45.38L362.02-45.38Q364.10-46.72 367.10-46.72L367.10-46.72L367.10-46.72Q370.11-46.72 371.94-45.38L371.94-45.38L371.94-45.38Q373.76-44.03 373.76-41.54L373.76-41.54L373.76-41.54Q373.76-39.04 371.74-37.76L371.74-37.76L371.74-37.76Q369.73-36.48 366.72-36.48L366.72-36.48L366.72-36.48Q363.71-36.48 361.82-37.76L361.82-37.76L361.82-37.76Q359.94-39.04 359.94-41.54ZM398.08-31.55L398.08-31.55L398.08-31.55Q400.19-33.92 403.84-33.92L403.84-33.92L403.84-33.92Q406.08-33.92 407.81-32.70L407.81-32.70L407.81-32.70Q409.54-31.49 409.54-29.22L409.54-29.22L409.54-29.22Q409.54-26.94 408.83-24.51L408.83-24.51L408.83-24.51Q408.13-22.08 407.04-19.58L407.04-19.58L407.04-19.58Q404.86-14.72 401.86-10.69L401.86-10.69L401.86-10.69Q397.63-4.86 393.57-1.79L393.57-1.79L393.57-1.79Q389.50 1.28 385.09 1.28L385.09 1.28L385.09 1.28Q381.50 1.28 379.33 0.45L379.33 0.45L379.33 0.45Q378.94-12.99 378.46-17.79L378.46-17.79L378.46-17.79Q377.98-22.59 377.60-25.22L377.60-25.22L377.60-25.22Q376.96-30.34 375.04-31.55L375.04-31.55L375.04-31.55Q376.51-32.83 377.95-33.38L377.95-33.38L377.95-33.38Q379.39-33.92 382.37-33.92L382.37-33.92L382.37-33.92Q385.34-33.92 387.46-31.58L387.46-31.58L387.46-31.58Q389.57-29.25 389.98-25.12L389.98-25.12L389.98-25.12Q390.40-20.99 390.40-16L390.40-16L390.40-16Q390.40-11.01 390.02-4.99L390.02-4.99L390.02-4.99Q392.00-6.40 394.11-10.69L394.11-10.69L394.11-10.69Q396.99-16.64 398.02-23.81L398.02-23.81L398.02-23.81Q398.34-25.98 398.34-28.29L398.34-28.29L398.34-28.29Q398.34-30.59 398.08-31.55ZM437.18-10.82L437.18-10.82L437.18-10.82Q438.78-9.73 438.78-7.33L438.78-7.33L438.78-7.33Q438.78-4.93 437.57-3.39L437.57-3.39L437.57-3.39Q436.35-1.86 434.37-0.83L434.37-0.83L434.37-0.83Q430.27 1.28 425.86 1.28L425.86 1.28L425.86 1.28Q421.44 1.28 418.85 0.32L418.85 0.32L418.85 0.32Q416.26-0.64 414.53-2.43L414.53-2.43L414.53-2.43Q411.14-5.82 411.14-12.03L411.14-12.03L411.14-12.03Q411.14-21.70 416.38-27.58L416.38-27.58L416.38-27.58Q422.02-33.92 431.81-33.92L431.81-33.92L431.81-33.92Q437.89-33.92 440.90-31.36L440.90-31.36L440.90-31.36Q443.14-29.44 443.14-26.30L443.14-26.30L443.14-26.30Q443.14-15.04 423.68-15.04L423.68-15.04L423.68-15.04Q423.42-13.38 423.42-11.97L423.42-11.97L423.42-11.97Q423.42-9.02 424.74-7.90L424.74-7.90L424.74-7.90Q426.05-6.78 428.48-6.78L428.48-6.78L428.48-6.78Q430.91-6.78 433.50-7.90L433.50-7.90L433.50-7.90Q436.10-9.02 437.18-10.82ZM424.13-17.79L424.13-17.79L424.13-17.79Q428.67-17.79 431.30-20.61L431.30-20.61L431.30-20.61Q433.92-23.30 433.92-27.58L433.92-27.58L433.92-27.58Q433.92-29.06 433.38-29.86L433.38-29.86L433.38-29.86Q432.83-30.66 431.74-30.66L431.74-30.66L431.74-30.66Q430.66-30.66 429.73-30.24L429.73-30.24L429.73-30.24Q428.80-29.82 427.84-28.42L427.84-28.42L427.84-28.42Q425.47-25.22 424.13-17.79Z" fill="none" stroke="#fff" stroke-width="2.1"></path></g></g></g><style>text {
  font-size: 64px;
  font-family: Arial Black;
  dominant-baseline: central;
  text-anchor: middle;
}</style></svg>