<svg width="582.8px" height="122px" xmlns="http://www.w3.org/2000/svg" viewBox="-41.390625 14 582.78125 122" style="background: rgba(0, 0, 0, 0)" preserveAspectRatio="xMidYMid"><defs><filter id="editing-vintage" x="-100%" y="-100%" width="300%" height="300%"><feConvolveMatrix in="SourceGraphic" result="extrude" order="5,5" divisor="1" kernelMatrix="1,0,0,0,0,0,1,0,0,0,0,0,1,0,0,0,0,0,1,0,0,0,0,0,1"> </feConvolveMatrix><feFlood flood-color="#900" result="flood-extrude"></feFlood><feComposite operator="in" in="flood-extrude" in2="extrude" result="extrude-color"></feComposite><feOffset dx="3" dy="3" in="extrude-color" result="extrude-offset"></feOffset><feColorMatrix in="SourceGraphic" result="stroke" type="matrix" values="0 0 0 0 0 0 0 0 0 0 0 0 0 0 0 0 1 0 0 0 "></feColorMatrix><feColorMatrix in="SourceGraphic" result="fill" type="matrix" values="0 0 0 0 0 0 0 0 0 0 0 0 0 0 0 1 0 0 1 0 "></feColorMatrix><feConvolveMatrix in="stroke" result="inner-shadow" order="5,5" divisor="1" kernelMatrix="1 0 0 0 0 0 1 0 0 0 0 0 1 0 0 0 0 0 1 0 0 0 0 0 1 "></feConvolveMatrix><feOffset dx="1" dy="1" in="inner-shadow" result="offset"></feOffset><feComposite operator="in" in="offset" in2="SourceAlpha" result="comp"></feComposite><feFlood flood-color="#000" result="flood3"></feFlood><feComposite operator="in" in="flood3" in2="comp" result="comp2"></feComposite><feColorMatrix in="comp2" result="comp3" type="matrix" values="1 0 0 0 0 0 1 0 0 0 0 0 1 0 0 0 0 0 0.5 0 "></feColorMatrix><feFlood flood-color="#f00" result="flood1"></feFlood><feComposite operator="in" in="flood1" in2="fill" result="fill2"></feComposite><feFlood flood-color="#fff" result="flood2"></feFlood><feComposite operator="in" in="flood2" in2="stroke" result="stroke2"></feComposite><feMerge result="obj"><feMergeNode in="extrude-offset"></feMergeNode><feMergeNode in="fill2"></feMergeNode><feMergeNode in="comp3"></feMergeNode></feMerge><feConvolveMatrix in="SourceAlpha" result="shadow" order="5,5" divisor="1" kernelMatrix="1,0,0,0,0,0,1,0,0,0,0,0,1,0,0,0,0,0,1,0,0,0,0,0,1"></feConvolveMatrix><feOffset dx="9" dy="9" in="shadow" result="shadow-offset"></feOffset><feFlood flood-color="#444444" result="flood-shadow"></feFlood><feComposite operator="in" in="flood-shadow" in2="shadow-offset" result="shadow-color"></feComposite><feMerge><feMergeNode in="shadow-color"></feMergeNode><feMergeNode in="obj"></feMergeNode></feMerge></filter></defs><g transform="matrix(1,0,0,1,-5,-5)"><g transform="matrix(1.3,0,0,1.9,-73.1,-73.6)" filter="url(#editing-vintage)"><g transform="translate(44.8,104.8)"><path d="M 21.3 -10.7 L 7.3 -10.7 L 15.5 -53 L 29.5 -53 L 21.3 -10.7 Z M 58 -9.5 L 58 -9.5 L 58 -9.5 Q 50.3 -9.5 50.3 -15.5 L 50.3 -15.5 L 50.3 -15.5 Q 50.3 -17.1 50.8 -20 L 50.8 -20 L 52 -25.8 L 52 -25.8 Q 53.7 -34.2 53.7 -36 L 53.7 -36 L 53.7 -36 Q 53.7 -39.7 51.6 -39.7 L 51.6 -39.7 L 51.6 -39.7 Q 47.9 -39.7 46 -30.2 L 46 -30.2 L 42.2 -10.7 L 29.3 -9.5 L 36 -43.4 L 46.5 -44.7 L 45.5 -38.4 L 45.5 -38.4 Q 48.5 -44.7 57.7 -44.7 L 57.7 -44.7 L 57.7 -44.7 Q 62.2 -44.7 64.1 -42.8 L 64.1 -42.8 L 64.1 -42.8 Q 66 -40.9 66 -36.7 L 66 -36.7 L 66 -36.7 Q 66 -32.7 63.9 -23.4 L 63.9 -23.4 L 63.9 -23.4 Q 62.9 -19.2 62.9 -17.7 L 62.9 -17.7 L 62.9 -17.7 Q 62.9 -16.1 63.8 -15.2 L 63.8 -15.2 L 63.8 -15.2 Q 64.7 -14.3 66 -14.2 L 66 -14.2 L 66 -14.2 Q 65.3 -12 63.1 -10.7 L 63.1 -10.7 L 63.1 -10.7 Q 60.9 -9.5 58 -9.5 Z M 72.1 -17.1 L 72.1 -17.1 L 72.1 -17.1 Q 72.1 -18.9 73 -23.2 L 73 -23.2 L 76.4 -40.5 L 72.6 -40.5 L 72.9 -42.4 L 72.9 -42.4 Q 80.5 -44.7 88 -50.4 L 88 -50.4 L 91 -50.4 L 89.5 -43.4 L 94.5 -43.4 L 93.9 -40.5 L 89 -40.5 L 85.7 -23.2 L 85.7 -23.2 Q 84.9 -19.2 84.9 -17.9 L 84.9 -17.9 L 84.9 -17.9 Q 84.9 -14.8 87.6 -14.2 L 87.6 -14.2 L 87.6 -14.2 Q 86.9 -12 84.6 -10.7 L 84.6 -10.7 L 84.6 -10.7 Q 82.3 -9.5 79.1 -9.5 L 79.1 -9.5 L 79.1 -9.5 Q 75.8 -9.5 74 -11.5 L 74 -11.5 L 74 -11.5 Q 72.1 -13.6 72.1 -17.1 Z M 104.1 -40.2 L 97.3 -40.2 L 97.3 -40.2 Q 99.7 -48.4 99.8 -57.1 L 99.8 -57.1 L 101.7 -57.3 L 101.7 -57.3 Q 102.6 -57.5 103.3 -57.5 L 103.3 -57.5 L 103.3 -57.5 Q 106.1 -57.5 107.7 -56.1 L 107.7 -56.1 L 107.7 -56.1 Q 109.2 -54.7 109.2 -52.3 L 109.2 -52.3 L 109.2 -52.3 Q 109.2 -49.7 108.1 -46.9 L 108.1 -46.9 L 108.1 -46.9 Q 106 -41.9 104.1 -40.2 L 104.1 -40.2 Z M 124.3 -14.3 L 124.3 -14.3 L 124.3 -14.3 Q 122.3 -9.5 115.9 -9.5 L 115.9 -9.5 L 115.9 -9.5 Q 112.7 -9.5 110.7 -11.7 L 110.7 -11.7 L 110.7 -11.7 Q 109 -13.6 109 -15.7 L 109 -15.7 L 109 -15.7 Q 109 -20.5 111.3 -31 L 111.3 -31 L 115.9 -55.5 L 128.9 -56.8 L 122.7 -24.4 L 122.7 -24.4 Q 121.6 -19.7 121.6 -18 L 121.6 -18 L 121.6 -18 Q 121.6 -14.4 124.3 -14.3 Z M 156.1 -10.7 L 142.2 -10.7 L 150.3 -53 L 164.4 -53 L 156.1 -10.7 Z M 211.9 -9.5 L 211.9 -9.5 L 211.9 -9.5 Q 204.1 -9.5 204.1 -15.5 L 204.1 -15.5 L 204.1 -15.5 Q 204.1 -18.1 205.2 -23.2 L 205.2 -23.2 L 205.2 -23.2 Q 206.4 -28.3 206.8 -30.3 L 206.8 -30.3 L 206.8 -30.3 Q 207.6 -35 207.6 -36.5 L 207.6 -36.5 L 207.6 -36.5 Q 207.6 -39.7 205.2 -39.7 L 205.2 -39.7 L 205.2 -39.7 Q 203.6 -39.7 202.1 -37.5 L 202.1 -37.5 L 202.1 -37.5 Q 200.5 -35.3 199.8 -30.9 L 199.8 -30.9 L 195.9 -10.7 L 183.4 -9.5 L 186.8 -26.9 L 186.8 -26.9 Q 187.4 -29.7 187.9 -33 L 187.9 -33 L 187.9 -33 Q 188.4 -36.3 188.4 -36.8 L 188.4 -36.8 L 188.4 -36.8 Q 188.4 -39.7 186.3 -39.7 L 186.3 -39.7 L 186.3 -39.7 Q 184.8 -39.7 183.2 -37.6 L 183.2 -37.6 L 183.2 -37.6 Q 181.6 -35.4 180.7 -30.9 L 180.7 -30.9 L 176.8 -10.7 L 164.2 -9.5 L 170.9 -43.4 L 181.3 -44.7 L 180.3 -38.2 L 180.3 -38.2 Q 181.9 -41.6 185 -43.2 L 185 -43.2 L 185 -43.2 Q 188.1 -44.7 192.9 -44.7 L 192.9 -44.7 L 192.9 -44.7 Q 195.6 -44.7 197.4 -43.3 L 197.4 -43.3 L 197.4 -43.3 Q 199.2 -42 199.8 -39.8 L 199.8 -39.8 L 199.8 -39.8 Q 200.9 -42 203.6 -43.3 L 203.6 -43.3 L 203.6 -43.3 Q 206.4 -44.7 209.9 -44.7 L 209.9 -44.7 L 209.9 -44.7 Q 213.3 -44.7 215 -43.9 L 215 -43.9 L 215 -43.9 Q 216.7 -43.2 217.7 -42 L 217.7 -42 L 217.7 -42 Q 219.4 -39.7 219.4 -35.6 L 219.4 -35.6 L 219.4 -35.6 Q 219.4 -31.6 217.7 -23.2 L 217.7 -23.2 L 217.7 -23.2 Q 216.8 -19.1 216.8 -17.6 L 216.8 -17.6 L 216.8 -17.6 Q 216.8 -16.1 217.7 -15.2 L 217.7 -15.2 L 217.7 -15.2 Q 218.5 -14.3 219.8 -14.2 L 219.8 -14.2 L 219.8 -14.2 Q 219.2 -12 217 -10.7 L 217 -10.7 L 217 -10.7 Q 214.8 -9.5 211.9 -9.5 Z M 229.3 -37.5 L 229.3 -37.5 L 229.3 -37.5 Q 231.5 -40.6 234.8 -42.6 L 234.8 -42.6 L 234.8 -42.6 Q 238 -44.7 242.1 -44.7 L 242.1 -44.7 L 242.1 -44.7 Q 246.1 -44.7 248 -43.4 L 248 -43.4 L 260.6 -44.7 L 256.2 -20.1 L 256.2 -20.1 Q 254 -7.5 249.2 -2.6 L 249.2 -2.6 L 249.2 -2.6 Q 244.7 2.1 235.9 2.1 L 235.9 2.1 L 235.9 2.1 Q 229.2 2.1 225.3 0 L 225.3 0 L 225.3 0 Q 221.5 -2.2 221.5 -5.7 L 221.5 -5.7 L 221.5 -5.7 Q 221.5 -8.3 223.5 -9.8 L 223.5 -9.8 L 223.5 -9.8 Q 225.4 -11.3 228.5 -11.3 L 228.5 -11.3 L 228.5 -11.3 Q 231.2 -11.3 233.2 -10.1 L 233.2 -10.1 L 233.2 -10.1 Q 234.5 -9.5 235 -8.6 L 235 -8.6 L 235 -8.6 Q 233.6 -7.3 233.6 -5.2 L 233.6 -5.2 L 233.6 -5.2 Q 233.6 -2.4 236.1 -2.4 L 236.1 -2.4 L 236.1 -2.4 Q 240.4 -2.4 242.8 -12.5 L 242.8 -12.5 L 242.8 -12.5 Q 243.6 -15.3 244.1 -18 L 244.1 -18 L 244.1 -18 Q 241.2 -14.5 234.7 -14.5 L 234.7 -14.5 L 234.7 -14.5 Q 230.2 -14.5 227.6 -16.7 L 227.6 -16.7 L 227.6 -16.7 Q 224.9 -18.9 224.9 -24 L 224.9 -24 L 224.9 -24 Q 224.9 -27.2 226 -30.8 L 226 -30.8 L 226 -30.8 Q 227.1 -34.4 229.3 -37.5 Z M 237.6 -23.8 L 237.6 -23.8 L 237.6 -23.8 Q 237.6 -19.4 239.8 -19.4 L 239.8 -19.4 L 239.8 -19.4 Q 241.4 -19.4 242.8 -21.1 L 242.8 -21.1 L 242.8 -21.1 Q 244 -22.4 244.4 -24.4 L 244.4 -24.4 L 247.7 -40.9 L 247.7 -40.9 Q 247.4 -40.9 247.1 -41.1 L 247.1 -41.1 L 247.1 -41.1 Q 246.4 -41.3 245.6 -41.3 L 245.6 -41.3 L 245.6 -41.3 Q 241.7 -41.3 239.4 -34.9 L 239.4 -34.9 L 239.4 -34.9 Q 237.6 -29.9 237.6 -23.8 Z M 304.4 -9.5 L 304.4 -9.5 L 304.4 -9.5 Q 296.2 -9.5 295.4 -21.1 L 295.4 -21.1 L 284.4 -21.1 L 284.4 -21.1 Q 283.1 -18.2 282.2 -15.6 L 282.2 -15.6 L 280.5 -10.7 L 271.6 -10.7 L 291.7 -53 L 305.5 -53 L 308.2 -21.9 L 308.2 -21.9 Q 308.8 -15.2 311.4 -13.2 L 311.4 -13.2 L 311.4 -13.2 Q 309.5 -9.5 304.4 -9.5 Z M 289.9 -33.9 L 286.4 -25.8 L 295.2 -25.8 L 294.4 -42.2 L 294.4 -44 L 289.9 -33.9 Z M 335.1 -28.7 L 335.1 -28.7 L 335.1 -28.7 Q 337.4 -32.8 337.4 -37 L 337.4 -37 L 337.4 -37 Q 337.4 -39.7 335.5 -39.7 L 335.5 -39.7 L 335.5 -39.7 Q 333.9 -39.7 332.3 -37.1 L 332.3 -37.1 L 332.3 -37.1 Q 330.7 -34.5 330.1 -31.1 L 330.1 -31.1 L 326.8 -10.7 L 313.6 -9.5 L 320.1 -43.4 L 330.7 -44.7 L 329.5 -38.2 L 329.5 -38.2 Q 332.6 -44.7 339.7 -44.7 L 339.7 -44.7 L 339.7 -44.7 Q 343.4 -44.7 345.4 -42.7 L 345.4 -42.7 L 345.4 -42.7 Q 347.4 -40.8 347.4 -36.9 L 347.4 -36.9 L 347.4 -36.9 Q 347.4 -32.9 344.8 -30.4 L 344.8 -30.4 L 344.8 -30.4 Q 342.2 -28 337.8 -28 L 337.8 -28 L 337.8 -28 Q 335.9 -28 335.1 -28.7 Z M 379.9 -37.4 L 379.9 -37.4 L 379.9 -37.4 Q 379.9 -34.7 377.6 -33 L 377.6 -33 L 377.6 -33 Q 375.4 -31.3 371.7 -31.3 L 371.7 -31.3 L 371.7 -31.3 Q 370.2 -31.3 369.3 -31.8 L 369.3 -31.8 L 369.3 -31.8 Q 370 -33.5 370.2 -35.5 L 370.2 -35.5 L 370.2 -35.5 Q 370.5 -37.6 370.5 -38.2 L 370.5 -38.2 L 370.5 -38.2 Q 370.5 -40.9 368.6 -40.9 L 368.6 -40.9 L 368.6 -40.9 Q 367.3 -40.9 365.9 -39.3 L 365.9 -39.3 L 365.9 -39.3 Q 364.4 -37.7 363.2 -35.2 L 363.2 -35.2 L 363.2 -35.2 Q 360.5 -29.4 360.5 -23.6 L 360.5 -23.6 L 360.5 -23.6 Q 360.5 -20.4 361.8 -19 L 361.8 -19 L 361.8 -19 Q 363 -17.5 365.7 -17.5 L 365.7 -17.5 L 365.7 -17.5 Q 369.4 -17.5 372.3 -20.6 L 372.3 -20.6 L 372.3 -20.6 Q 373.2 -21.6 373.6 -22.6 L 373.6 -22.6 L 373.6 -22.6 Q 376 -21.4 376 -17.8 L 376 -17.8 L 376 -17.8 Q 376 -14.3 372.1 -11.9 L 372.1 -11.9 L 372.1 -11.9 Q 368 -9.5 361.4 -9.5 L 361.4 -9.5 L 361.4 -9.5 Q 348.4 -9.5 348.4 -23.2 L 348.4 -23.2 L 348.4 -23.2 Q 348.4 -33.3 354.1 -39 L 354.1 -39 L 354.1 -39 Q 359.6 -44.7 369.8 -44.7 L 369.8 -44.7 L 369.8 -44.7 Q 379.9 -44.7 379.9 -37.4 Z M 413.8 -17.8 L 413.8 -17.8 L 413.8 -17.8 Q 413.8 -15 416.7 -14.2 L 416.7 -14.2 L 416.7 -14.2 Q 416 -11.8 413.2 -10.5 L 413.2 -10.5 L 413.2 -10.5 Q 410.9 -9.5 408.4 -9.5 L 408.4 -9.5 L 408.4 -9.5 Q 405.9 -9.5 404.5 -10.1 L 404.5 -10.1 L 404.5 -10.1 Q 403.2 -10.8 402.5 -11.9 L 402.5 -11.9 L 402.5 -11.9 Q 401.4 -13.6 401.4 -16.7 L 401.4 -16.7 L 401.4 -16.7 Q 401.4 -18.5 402.4 -23.7 L 402.4 -23.7 L 403.3 -28.5 L 403.3 -28.5 Q 404.4 -34.1 404.4 -36.1 L 404.4 -36.1 L 404.4 -36.1 Q 404.4 -39.7 402.4 -39.7 L 402.4 -39.7 L 402.4 -39.7 Q 399.9 -39.7 398.3 -36.1 L 398.3 -36.1 L 398.3 -36.1 Q 397.7 -34.7 397.2 -32.6 L 397.2 -32.6 L 392.9 -10.7 L 380 -9.5 L 389 -55.5 L 401.9 -56.8 L 401.4 -54.3 L 401.4 -54.3 Q 399.6 -44.4 398 -41.1 L 398 -41.1 L 398 -41.1 Q 401.6 -44.7 408.2 -44.7 L 408.2 -44.7 L 408.2 -44.7 Q 415.2 -44.7 416.5 -40 L 416.5 -40 L 416.5 -40 Q 416.9 -38.6 416.9 -37.3 L 416.9 -37.3 L 416.9 -37.3 Q 416.9 -36 416.8 -35 L 416.8 -35 L 416.8 -35 Q 416.7 -34 416.4 -32.2 L 416.4 -32.2 L 415.6 -27.6 L 414.1 -20.4 L 414.1 -20.4 Q 413.8 -18.9 413.8 -17.8 Z" fill="#ff0000" stroke="#00ff00" stroke-width="1.8"></path></g></g><g transform="matrix(1.3,0,0,1.9,-73.1,-73.6)"><g transform="translate(44.8,104.8)"><path d="M 21.3 -10.7 L 7.3 -10.7 L 15.5 -53 L 29.5 -53 L 21.3 -10.7 Z M 58 -9.5 L 58 -9.5 L 58 -9.5 Q 50.3 -9.5 50.3 -15.5 L 50.3 -15.5 L 50.3 -15.5 Q 50.3 -17.1 50.8 -20 L 50.8 -20 L 52 -25.8 L 52 -25.8 Q 53.7 -34.2 53.7 -36 L 53.7 -36 L 53.7 -36 Q 53.7 -39.7 51.6 -39.7 L 51.6 -39.7 L 51.6 -39.7 Q 47.9 -39.7 46 -30.2 L 46 -30.2 L 42.2 -10.7 L 29.3 -9.5 L 36 -43.4 L 46.5 -44.7 L 45.5 -38.4 L 45.5 -38.4 Q 48.5 -44.7 57.7 -44.7 L 57.7 -44.7 L 57.7 -44.7 Q 62.2 -44.7 64.1 -42.8 L 64.1 -42.8 L 64.1 -42.8 Q 66 -40.9 66 -36.7 L 66 -36.7 L 66 -36.7 Q 66 -32.7 63.9 -23.4 L 63.9 -23.4 L 63.9 -23.4 Q 62.9 -19.2 62.9 -17.7 L 62.9 -17.7 L 62.9 -17.7 Q 62.9 -16.1 63.8 -15.2 L 63.8 -15.2 L 63.8 -15.2 Q 64.7 -14.3 66 -14.2 L 66 -14.2 L 66 -14.2 Q 65.3 -12 63.1 -10.7 L 63.1 -10.7 L 63.1 -10.7 Q 60.9 -9.5 58 -9.5 Z M 72.1 -17.1 L 72.1 -17.1 L 72.1 -17.1 Q 72.1 -18.9 73 -23.2 L 73 -23.2 L 76.4 -40.5 L 72.6 -40.5 L 72.9 -42.4 L 72.9 -42.4 Q 80.5 -44.7 88 -50.4 L 88 -50.4 L 91 -50.4 L 89.5 -43.4 L 94.5 -43.4 L 93.9 -40.5 L 89 -40.5 L 85.7 -23.2 L 85.7 -23.2 Q 84.9 -19.2 84.9 -17.9 L 84.9 -17.9 L 84.9 -17.9 Q 84.9 -14.8 87.6 -14.2 L 87.6 -14.2 L 87.6 -14.2 Q 86.9 -12 84.6 -10.7 L 84.6 -10.7 L 84.6 -10.7 Q 82.3 -9.5 79.1 -9.5 L 79.1 -9.5 L 79.1 -9.5 Q 75.8 -9.5 74 -11.5 L 74 -11.5 L 74 -11.5 Q 72.1 -13.6 72.1 -17.1 Z M 104.1 -40.2 L 97.3 -40.2 L 97.3 -40.2 Q 99.7 -48.4 99.8 -57.1 L 99.8 -57.1 L 101.7 -57.3 L 101.7 -57.3 Q 102.6 -57.5 103.3 -57.5 L 103.3 -57.5 L 103.3 -57.5 Q 106.1 -57.5 107.7 -56.1 L 107.7 -56.1 L 107.7 -56.1 Q 109.2 -54.7 109.2 -52.3 L 109.2 -52.3 L 109.2 -52.3 Q 109.2 -49.7 108.1 -46.9 L 108.1 -46.9 L 108.1 -46.9 Q 106 -41.9 104.1 -40.2 L 104.1 -40.2 Z M 124.3 -14.3 L 124.3 -14.3 L 124.3 -14.3 Q 122.3 -9.5 115.9 -9.5 L 115.9 -9.5 L 115.9 -9.5 Q 112.7 -9.5 110.7 -11.7 L 110.7 -11.7 L 110.7 -11.7 Q 109 -13.6 109 -15.7 L 109 -15.7 L 109 -15.7 Q 109 -20.5 111.3 -31 L 111.3 -31 L 115.9 -55.5 L 128.9 -56.8 L 122.7 -24.4 L 122.7 -24.4 Q 121.6 -19.7 121.6 -18 L 121.6 -18 L 121.6 -18 Q 121.6 -14.4 124.3 -14.3 Z M 156.1 -10.7 L 142.2 -10.7 L 150.3 -53 L 164.4 -53 L 156.1 -10.7 Z M 211.9 -9.5 L 211.9 -9.5 L 211.9 -9.5 Q 204.1 -9.5 204.1 -15.5 L 204.1 -15.5 L 204.1 -15.5 Q 204.1 -18.1 205.2 -23.2 L 205.2 -23.2 L 205.2 -23.2 Q 206.4 -28.3 206.8 -30.3 L 206.8 -30.3 L 206.8 -30.3 Q 207.6 -35 207.6 -36.5 L 207.6 -36.5 L 207.6 -36.5 Q 207.6 -39.7 205.2 -39.7 L 205.2 -39.7 L 205.2 -39.7 Q 203.6 -39.7 202.1 -37.5 L 202.1 -37.5 L 202.1 -37.5 Q 200.5 -35.3 199.8 -30.9 L 199.8 -30.9 L 195.9 -10.7 L 183.4 -9.5 L 186.8 -26.9 L 186.8 -26.9 Q 187.4 -29.7 187.9 -33 L 187.9 -33 L 187.9 -33 Q 188.4 -36.3 188.4 -36.8 L 188.4 -36.8 L 188.4 -36.8 Q 188.4 -39.7 186.3 -39.7 L 186.3 -39.7 L 186.3 -39.7 Q 184.8 -39.7 183.2 -37.6 L 183.2 -37.6 L 183.2 -37.6 Q 181.6 -35.4 180.7 -30.9 L 180.7 -30.9 L 176.8 -10.7 L 164.2 -9.5 L 170.9 -43.4 L 181.3 -44.7 L 180.3 -38.2 L 180.3 -38.2 Q 181.9 -41.6 185 -43.2 L 185 -43.2 L 185 -43.2 Q 188.1 -44.7 192.9 -44.7 L 192.9 -44.7 L 192.9 -44.7 Q 195.6 -44.7 197.4 -43.3 L 197.4 -43.3 L 197.4 -43.3 Q 199.2 -42 199.8 -39.8 L 199.8 -39.8 L 199.8 -39.8 Q 200.9 -42 203.6 -43.3 L 203.6 -43.3 L 203.6 -43.3 Q 206.4 -44.7 209.9 -44.7 L 209.9 -44.7 L 209.9 -44.7 Q 213.3 -44.7 215 -43.9 L 215 -43.9 L 215 -43.9 Q 216.7 -43.2 217.7 -42 L 217.7 -42 L 217.7 -42 Q 219.4 -39.7 219.4 -35.6 L 219.4 -35.6 L 219.4 -35.6 Q 219.4 -31.6 217.7 -23.2 L 217.7 -23.2 L 217.7 -23.2 Q 216.8 -19.1 216.8 -17.6 L 216.8 -17.6 L 216.8 -17.6 Q 216.8 -16.1 217.7 -15.2 L 217.7 -15.2 L 217.7 -15.2 Q 218.5 -14.3 219.8 -14.2 L 219.8 -14.2 L 219.8 -14.2 Q 219.2 -12 217 -10.7 L 217 -10.7 L 217 -10.7 Q 214.8 -9.5 211.9 -9.5 Z M 229.3 -37.5 L 229.3 -37.5 L 229.3 -37.5 Q 231.5 -40.6 234.8 -42.6 L 234.8 -42.6 L 234.8 -42.6 Q 238 -44.7 242.1 -44.7 L 242.1 -44.7 L 242.1 -44.7 Q 246.1 -44.7 248 -43.4 L 248 -43.4 L 260.6 -44.7 L 256.2 -20.1 L 256.2 -20.1 Q 254 -7.5 249.2 -2.6 L 249.2 -2.6 L 249.2 -2.6 Q 244.7 2.1 235.9 2.1 L 235.9 2.1 L 235.9 2.1 Q 229.2 2.1 225.3 0 L 225.3 0 L 225.3 0 Q 221.5 -2.2 221.5 -5.7 L 221.5 -5.7 L 221.5 -5.7 Q 221.5 -8.3 223.5 -9.8 L 223.5 -9.8 L 223.5 -9.8 Q 225.4 -11.3 228.5 -11.3 L 228.5 -11.3 L 228.5 -11.3 Q 231.2 -11.3 233.2 -10.1 L 233.2 -10.1 L 233.2 -10.1 Q 234.5 -9.5 235 -8.6 L 235 -8.6 L 235 -8.6 Q 233.6 -7.3 233.6 -5.2 L 233.6 -5.2 L 233.6 -5.2 Q 233.6 -2.4 236.1 -2.4 L 236.1 -2.4 L 236.1 -2.4 Q 240.4 -2.4 242.8 -12.5 L 242.8 -12.5 L 242.8 -12.5 Q 243.6 -15.3 244.1 -18 L 244.1 -18 L 244.1 -18 Q 241.2 -14.5 234.7 -14.5 L 234.7 -14.5 L 234.7 -14.5 Q 230.2 -14.5 227.6 -16.7 L 227.6 -16.7 L 227.6 -16.7 Q 224.9 -18.9 224.9 -24 L 224.9 -24 L 224.9 -24 Q 224.9 -27.2 226 -30.8 L 226 -30.8 L 226 -30.8 Q 227.1 -34.4 229.3 -37.5 Z M 237.6 -23.8 L 237.6 -23.8 L 237.6 -23.8 Q 237.6 -19.4 239.8 -19.4 L 239.8 -19.4 L 239.8 -19.4 Q 241.4 -19.4 242.8 -21.1 L 242.8 -21.1 L 242.8 -21.1 Q 244 -22.4 244.4 -24.4 L 244.4 -24.4 L 247.7 -40.9 L 247.7 -40.9 Q 247.4 -40.9 247.1 -41.1 L 247.1 -41.1 L 247.1 -41.1 Q 246.4 -41.3 245.6 -41.3 L 245.6 -41.3 L 245.6 -41.3 Q 241.7 -41.3 239.4 -34.9 L 239.4 -34.9 L 239.4 -34.9 Q 237.6 -29.9 237.6 -23.8 Z M 304.4 -9.5 L 304.4 -9.5 L 304.4 -9.5 Q 296.2 -9.5 295.4 -21.1 L 295.4 -21.1 L 284.4 -21.1 L 284.4 -21.1 Q 283.1 -18.2 282.2 -15.6 L 282.2 -15.6 L 280.5 -10.7 L 271.6 -10.7 L 291.7 -53 L 305.5 -53 L 308.2 -21.9 L 308.2 -21.9 Q 308.8 -15.2 311.4 -13.2 L 311.4 -13.2 L 311.4 -13.2 Q 309.5 -9.5 304.4 -9.5 Z M 289.9 -33.9 L 286.4 -25.8 L 295.2 -25.8 L 294.4 -42.2 L 294.4 -44 L 289.9 -33.9 Z M 335.1 -28.7 L 335.1 -28.7 L 335.1 -28.7 Q 337.4 -32.8 337.4 -37 L 337.4 -37 L 337.4 -37 Q 337.4 -39.7 335.5 -39.7 L 335.5 -39.7 L 335.5 -39.7 Q 333.9 -39.7 332.3 -37.1 L 332.3 -37.1 L 332.3 -37.1 Q 330.7 -34.5 330.1 -31.1 L 330.1 -31.1 L 326.8 -10.7 L 313.6 -9.5 L 320.1 -43.4 L 330.7 -44.7 L 329.5 -38.2 L 329.5 -38.2 Q 332.6 -44.7 339.7 -44.7 L 339.7 -44.7 L 339.7 -44.7 Q 343.4 -44.7 345.4 -42.7 L 345.4 -42.7 L 345.4 -42.7 Q 347.4 -40.8 347.4 -36.9 L 347.4 -36.9 L 347.4 -36.9 Q 347.4 -32.9 344.8 -30.4 L 344.8 -30.4 L 344.8 -30.4 Q 342.2 -28 337.8 -28 L 337.8 -28 L 337.8 -28 Q 335.9 -28 335.1 -28.7 Z M 379.9 -37.4 L 379.9 -37.4 L 379.9 -37.4 Q 379.9 -34.7 377.6 -33 L 377.6 -33 L 377.6 -33 Q 375.4 -31.3 371.7 -31.3 L 371.7 -31.3 L 371.7 -31.3 Q 370.2 -31.3 369.3 -31.8 L 369.3 -31.8 L 369.3 -31.8 Q 370 -33.5 370.2 -35.5 L 370.2 -35.5 L 370.2 -35.5 Q 370.5 -37.6 370.5 -38.2 L 370.5 -38.2 L 370.5 -38.2 Q 370.5 -40.9 368.6 -40.9 L 368.6 -40.9 L 368.6 -40.9 Q 367.3 -40.9 365.9 -39.3 L 365.9 -39.3 L 365.9 -39.3 Q 364.4 -37.7 363.2 -35.2 L 363.2 -35.2 L 363.2 -35.2 Q 360.5 -29.4 360.5 -23.6 L 360.5 -23.6 L 360.5 -23.6 Q 360.5 -20.4 361.8 -19 L 361.8 -19 L 361.8 -19 Q 363 -17.5 365.7 -17.5 L 365.7 -17.5 L 365.7 -17.5 Q 369.4 -17.5 372.3 -20.6 L 372.3 -20.6 L 372.3 -20.6 Q 373.2 -21.6 373.6 -22.6 L 373.6 -22.6 L 373.6 -22.6 Q 376 -21.4 376 -17.8 L 376 -17.8 L 376 -17.8 Q 376 -14.3 372.1 -11.9 L 372.1 -11.9 L 372.1 -11.9 Q 368 -9.5 361.4 -9.5 L 361.4 -9.5 L 361.4 -9.5 Q 348.4 -9.5 348.4 -23.2 L 348.4 -23.2 L 348.4 -23.2 Q 348.4 -33.3 354.1 -39 L 354.1 -39 L 354.1 -39 Q 359.6 -44.7 369.8 -44.7 L 369.8 -44.7 L 369.8 -44.7 Q 379.9 -44.7 379.9 -37.4 Z M 413.8 -17.8 L 413.8 -17.8 L 413.8 -17.8 Q 413.8 -15 416.7 -14.2 L 416.7 -14.2 L 416.7 -14.2 Q 416 -11.8 413.2 -10.5 L 413.2 -10.5 L 413.2 -10.5 Q 410.9 -9.5 408.4 -9.5 L 408.4 -9.5 L 408.4 -9.5 Q 405.9 -9.5 404.5 -10.1 L 404.5 -10.1 L 404.5 -10.1 Q 403.2 -10.8 402.5 -11.9 L 402.5 -11.9 L 402.5 -11.9 Q 401.4 -13.6 401.4 -16.7 L 401.4 -16.7 L 401.4 -16.7 Q 401.4 -18.5 402.4 -23.7 L 402.4 -23.7 L 403.3 -28.5 L 403.3 -28.5 Q 404.4 -34.1 404.4 -36.1 L 404.4 -36.1 L 404.4 -36.1 Q 404.4 -39.7 402.4 -39.7 L 402.4 -39.7 L 402.4 -39.7 Q 399.9 -39.7 398.3 -36.1 L 398.3 -36.1 L 398.3 -36.1 Q 397.7 -34.7 397.2 -32.6 L 397.2 -32.6 L 392.9 -10.7 L 380 -9.5 L 389 -55.5 L 401.9 -56.8 L 401.4 -54.3 L 401.4 -54.3 Q 399.6 -44.4 398 -41.1 L 398 -41.1 L 398 -41.1 Q 401.6 -44.7 408.2 -44.7 L 408.2 -44.7 L 408.2 -44.7 Q 415.2 -44.7 416.5 -40 L 416.5 -40 L 416.5 -40 Q 416.9 -38.6 416.9 -37.3 L 416.9 -37.3 L 416.9 -37.3 Q 416.9 -36 416.8 -35 L 416.8 -35 L 416.8 -35 Q 416.7 -34 416.4 -32.2 L 416.4 -32.2 L 415.6 -27.6 L 414.1 -20.4 L 414.1 -20.4 Q 413.8 -18.9 413.8 -17.8 Z" fill="none" stroke="#ffffff" stroke-width="2.1"></path></g></g></g><style>text {
  font-size: 64px;
  font-family: Arial Black;
  dominant-baseline: central;
  text-anchor: middle;
}</style></svg>